<svg id="Layer_1" data-name="Layer 1" xmlns="http://www.w3.org/2000/svg" viewBox="0 0 162.13 45.31"><defs><style>.cls-1{fill:#feb922;}.cls-1,.cls-2,.cls-3,.cls-5{fill-rule:evenodd;}.cls-2{fill:#b3b3b3;}.cls-3{fill:#d18f00;}.cls-4{fill:#1e1920;}.cls-5{fill:#f2f3f5;}</style></defs><path class="cls-1" d="M-1261,2584.28a14.27,14.27,0,0,0,1.77,4.14l0,0c.67.1,1.36.19,2.07.25s1.62.1,2.45.1,1.64,0,2.45-.1,1.39-.15,2.07-.25v0a14.29,14.29,0,0,0,1.78-4.14c-.8.2-1.62.37-2.45.5a25.89,25.89,0,0,1-3.86.29,26,26,0,0,1-3.87-.29c-.83-.13-1.64-.3-2.44-.5" transform="translate(1275.08 -2549.41)"/><path class="cls-1" d="M-1258.31,2583.14a23.81,23.81,0,0,0,3.62.27,24,24,0,0,0,3.62-.27,24.36,24.36,0,0,0,3-.66l0-.2a17.76,17.76,0,0,1-2.21-2.13c-.24-.27-.46-.54-.68-.82-.53.1-1.06.18-1.61.24a19.53,19.53,0,0,1-2.16.11,19.53,19.53,0,0,1-2.16-.11c-.55-.06-1.09-.14-1.61-.24-.22.28-.45.55-.68.82a18.48,18.48,0,0,1-2.21,2.13l0,.2a24.93,24.93,0,0,0,3,.66" transform="translate(1275.08 -2549.41)"/><path class="cls-1" d="M-1254.69,2578a18.19,18.19,0,0,0,2-.11q.36,0,.72-.09a21.71,21.71,0,0,1-2.7-6.12,21.73,21.73,0,0,1-2.71,6.12q.36.06.72.09a18.37,18.37,0,0,0,2,.11" transform="translate(1275.08 -2549.41)"/><path class="cls-1" d="M-1252.11,2590.35c-.85.07-1.72.1-2.58.1s-1.73,0-2.59-.1l-.54,0a14.38,14.38,0,0,0,3.13,2.63,14.57,14.57,0,0,0,3.12-2.63Z" transform="translate(1275.08 -2549.41)"/><path class="cls-2" d="M-1272.75,2574.2a19.23,19.23,0,0,1,17.13-12.61c0-.35.06-.71.08-1.06v-.07a18.65,18.65,0,0,0-12.39,5.47,18.62,18.62,0,0,0-4.82,8.27" transform="translate(1275.08 -2549.41)"/><path class="cls-2" d="M-1253.76,2561.59a19.25,19.25,0,0,1,17.13,12.61,18.72,18.72,0,0,0-4.82-8.27,18.65,18.65,0,0,0-12.39-5.47v.07c0,.35,0,.71.08,1.06" transform="translate(1275.08 -2549.41)"/><path class="cls-2" d="M-1269.56,2579.45a22.34,22.34,0,0,0,13-7.15,21.67,21.67,0,0,0,.93-4.32,20.22,20.22,0,0,1-4.51,6.37,20.24,20.24,0,0,1-9.39,5.1" transform="translate(1275.08 -2549.41)"/><path class="cls-2" d="M-1239.83,2579.45a22.37,22.37,0,0,1-13-7.15,22.4,22.4,0,0,1-.93-4.32,20.41,20.41,0,0,0,4.52,6.37,20.21,20.21,0,0,0,9.38,5.1" transform="translate(1275.08 -2549.41)"/><path class="cls-3" d="M-1259,2579.84a17.71,17.71,0,0,0,8.62,0l-.49-.6c-.53.1-1.07.18-1.63.24a20.09,20.09,0,0,1-2.19.12,20.09,20.09,0,0,1-2.19-.12c-.56-.06-1.11-.14-1.64-.24l-.48.6" transform="translate(1275.08 -2549.41)"/><path class="cls-3" d="M-1260.86,2585.1a26.75,26.75,0,0,0,12.33,0q.13-.41.24-.84c-.81.21-1.64.38-2.48.51a26.69,26.69,0,0,1-3.92.3,26.94,26.94,0,0,1-3.93-.3,25.13,25.13,0,0,1-2.47-.51c.07.29.15.57.23.84" transform="translate(1275.08 -2549.41)"/><path class="cls-3" d="M-1257.12,2591.06a29.21,29.21,0,0,0,4.86,0c.28-.27.55-.55.8-.84l-.56.05c-.88.08-1.78.11-2.67.11s-1.79,0-2.68-.11l-.56-.05q.39.44.81.84" transform="translate(1275.08 -2549.41)"/><path class="cls-4" d="M-1256.39,2565.27s0,0,0-.06a18.59,18.59,0,0,0,.83-4.68v-.07a18.65,18.65,0,0,0-12.39,5.47,18.6,18.6,0,0,0-5.47,12.39,18.67,18.67,0,0,0,12.09-5.16,18.7,18.7,0,0,0,4.92-7.89m4.82,25-.54,0c-.85.07-1.72.1-2.58.1s-1.73,0-2.59-.1l-.54,0a14.38,14.38,0,0,0,3.13,2.63A14.57,14.57,0,0,0-1251.57,2590.3Zm3.19-6c-.8.2-1.62.37-2.45.5a25.89,25.89,0,0,1-3.86.29,26,26,0,0,1-3.87-.29c-.83-.13-1.64-.3-2.44-.5a14.27,14.27,0,0,0,1.77,4.14l0,0c.67.1,1.36.19,2.07.25s1.62.1,2.45.1,1.64,0,2.45-.1,1.39-.15,2.07-.25v0A14.29,14.29,0,0,0-1248.38,2584.28Zm-9-6.45q.36.06.72.09a18.37,18.37,0,0,0,2,.11,18.19,18.19,0,0,0,2-.11q.36,0,.72-.09a21.71,21.71,0,0,1-2.7-6.12A21.73,21.73,0,0,1-1257.4,2577.83Zm1.74-9.85a20.22,20.22,0,0,1-4.51,6.37,20.24,20.24,0,0,1-9.39,5.1,23,23,0,0,0-.49,2.5c-.1.72-.16,1.45-.19,2.21a14.38,14.38,0,0,0,9.86-5.1A20.77,20.77,0,0,0-1255.66,2568Zm4.74,11.35c-.53.1-1.06.18-1.61.24a19.53,19.53,0,0,1-2.16.11,19.53,19.53,0,0,1-2.16-.11c-.55-.06-1.09-.14-1.61-.24-.22.28-.45.55-.68.82a18.48,18.48,0,0,1-2.21,2.13c0,.07,0,.13,0,.2a24.93,24.93,0,0,0,3,.66,23.81,23.81,0,0,0,3.62.27,24,24,0,0,0,3.62-.27,24.36,24.36,0,0,0,3-.66l0-.2a17.76,17.76,0,0,1-2.21-2.13C-1250.48,2579.88-1250.7,2579.61-1250.92,2579.33Zm1.92-.27a14.34,14.34,0,0,0,9.85,5.1,19.74,19.74,0,0,0-.19-2.21,20.84,20.84,0,0,0-.49-2.5,20.21,20.21,0,0,1-9.38-5.1,20.41,20.41,0,0,1-4.52-6.37A20.2,20.2,0,0,0-1249,2579.06Zm3.08-29.65a2.26,2.26,0,0,1,2.26,2.26,2.27,2.27,0,0,1-2.26,2.27,2.28,2.28,0,0,1-2-1.25,3.87,3.87,0,0,0-1.51.93,3.78,3.78,0,0,0-1.1,2.39,5.49,5.49,0,0,1,1.35,3.52,20.28,20.28,0,0,1,8.93,5.23,20.29,20.29,0,0,1,6,14.41.83.83,0,0,1-.83.83,20,20,0,0,1-2.91-.21c.14.63.26,1.28.35,1.94a23.92,23.92,0,0,1,.23,3.29.83.83,0,0,1-.83.83,15.08,15.08,0,0,1-8.21-2.47,15.8,15.8,0,0,1-2.25,5.92,15.94,15.94,0,0,1-5.52,5.31.82.82,0,0,1-.84,0,16,16,0,0,1-5.51-5.3,16,16,0,0,1-2.24-5.92,15.1,15.1,0,0,1-8.21,2.47.83.83,0,0,1-.83-.83,25.6,25.6,0,0,1,.22-3.29c.09-.66.21-1.31.35-1.94a19.93,19.93,0,0,1-2.91.21.83.83,0,0,1-.83-.83,20.33,20.33,0,0,1,6-14.41,20.32,20.32,0,0,1,8.94-5.23,5.43,5.43,0,0,1,1.35-3.52,3.85,3.85,0,0,0-1.11-2.39,3.8,3.8,0,0,0-1.51-.93,2.26,2.26,0,0,1-2,1.25,2.27,2.27,0,0,1-2.27-2.27,2.27,2.27,0,0,1,2.27-2.26,2.25,2.25,0,0,1,2.16,1.6,5.42,5.42,0,0,1,2.54,1.44,5.52,5.52,0,0,1,1.4,2.38,5.37,5.37,0,0,1,2.67-.7,5.37,5.37,0,0,1,2.67.7,5.4,5.4,0,0,1,1.39-2.38,5.42,5.42,0,0,1,2.54-1.44A2.26,2.26,0,0,1-1245.92,2549.41Zm-7.92,11.12a18.58,18.58,0,0,0,.82,4.68.14.14,0,0,1,0,.06,18.8,18.8,0,0,0,4.92,7.89,18.7,18.7,0,0,0,12.1,5.16,18.7,18.7,0,0,0-5.47-12.39,18.65,18.65,0,0,0-12.39-5.47Z" transform="translate(1275.08 -2549.41)"/><path class="cls-5" d="M-1256.37,2565.21a18.76,18.76,0,0,0,.75-3.62,19.23,19.23,0,0,0-17.13,12.61,18.08,18.08,0,0,0-.65,4.12,18.67,18.67,0,0,0,12.09-5.16,18.7,18.7,0,0,0,4.92-7.89Z" transform="translate(1275.08 -2549.41)"/><path class="cls-5" d="M-1253,2565.27a18.8,18.8,0,0,0,4.92,7.89,18.7,18.7,0,0,0,12.1,5.16,19.25,19.25,0,0,0-.65-4.12,19.25,19.25,0,0,0-17.13-12.61,18.74,18.74,0,0,0,.74,3.62Z" transform="translate(1275.08 -2549.41)"/><path class="cls-5" d="M-1239.83,2579.45a22.37,22.37,0,0,1-13-7.15,20,20,0,0,0,2.85,5.58l.07.09c.28.38.57.74.88,1.09a14.34,14.34,0,0,0,9.85,5.1,19.74,19.74,0,0,0-.19-2.21,20.84,20.84,0,0,0-.49-2.5" transform="translate(1275.08 -2549.41)"/><path class="cls-5" d="M-1259.43,2577.88a19.7,19.7,0,0,0,2.84-5.58,22.34,22.34,0,0,1-13,7.15,23,23,0,0,0-.49,2.5c-.1.72-.16,1.45-.19,2.21a14.38,14.38,0,0,0,9.86-5.1c.3-.35.6-.71.88-1.09Z" transform="translate(1275.08 -2549.41)"/><path d="M-1207.16,2586.07h-5.31v-12.52h-7v12.52h-5.31v-28.56h5.31v11.35h7v-11.35h5.31Z" transform="translate(1275.08 -2549.41)"/><path d="M-1186.6,2586.07l-1.64-7.21h-7.45l-1.64,7.21h-5.31l7.07-28.68h7.21l7.09,28.68Zm-2.64-11.92-1.52-6.64c-.09-.4-.3-1.42-.62-3s-.51-2.7-.58-3.25c-.16,1.12-.38,2.36-.64,3.7s-.94,4.43-2,9.23Z" transform="translate(1275.08 -2549.41)"/><path d="M-1156.75,2586.07h-6.49l-8.82-20.69h-.26a24.81,24.81,0,0,1,.49,5.08v15.61h-4.92v-28.56h6.52l8.75,20.47h.22a27.64,27.64,0,0,1-.37-4.88v-15.59h4.88Z" transform="translate(1275.08 -2549.41)"/><path d="M-1140.94,2586.07h-5.3v-23.89h-5.47v-4.67h16.24v4.67h-5.47Z" transform="translate(1275.08 -2549.41)"/><path d="M-1118.28,2586.07l-1.64-7.21h-7.44l-1.64,7.21h-5.31l7.07-28.68h7.2l7.09,28.68Zm-2.64-11.92-1.52-6.64c-.09-.4-.3-1.42-.61-3s-.52-2.7-.58-3.25c-.17,1.12-.38,2.36-.65,3.7s-.93,4.43-2,9.23Z" transform="translate(1275.08 -2549.41)"/></svg>